<?xml version="1.0" encoding="UTF-8" standalone="no"?>
<!-- Created with Inkscape (http://www.inkscape.org/) -->

<svg
   width="121.04013mm"
   height="81.213089mm"
   viewBox="0 0 121.04013 81.213089"
   version="1.1"
   id="svg5"
   xml:space="preserve"
   inkscape:export-filename="bitmap.svg"
   inkscape:export-xdpi="96"
   inkscape:export-ydpi="96"
   xmlns:inkscape="http://www.inkscape.org/namespaces/inkscape"
   xmlns:sodipodi="http://sodipodi.sourceforge.net/DTD/sodipodi-0.dtd"
   xmlns="http://www.w3.org/2000/svg"
   xmlns:svg="http://www.w3.org/2000/svg"><sodipodi:namedview
     id="namedview7"
     pagecolor="#ffffff"
     bordercolor="#000000"
     borderopacity="0.25"
     inkscape:showpageshadow="2"
     inkscape:pageopacity="0.0"
     inkscape:pagecheckerboard="0"
     inkscape:deskcolor="#d1d1d1"
     inkscape:document-units="mm"
     showgrid="false" /><defs
     id="defs2" /><g
     inkscape:label="Camada 1"
     inkscape:groupmode="layer"
     id="layer1"
     transform="translate(-0.40728361,-0.38790323)"><path
       style="display:none;fill:#000000;stroke-width:0.264583"
       d="m 50.076337,81.221353 c -2.018794,-0.54361 -3.419416,-1.33151 -4.964239,-2.79254 -5.812803,-5.4975 -4.193355,-15.13931 3.108082,-18.50476 7.857714,-3.62186 16.549564,2.36793 16.009014,11.03224 -0.44188,7.08278 -7.353697,12.09591 -14.152857,10.26506 z m 5.408885,-6.08264 c 0.865294,-0.43119 1.615938,-1.06883 2.102472,-1.78594 0.66969,-0.98708 0.7567,-1.34844 0.7567,-3.14304 0,-1.82621 -0.0789,-2.13973 -0.793755,-3.15469 -1.19045,-1.69018 -2.752923,-2.42135 -4.927137,-2.30566 -2.246548,0.11953 -3.623188,1.00139 -4.589102,2.93973 -2.444028,4.90453 2.54603,9.89376 7.450822,7.4496 z m 51.760558,6.12388 c -2.54885,-0.82763 -4.69805,-2.86626 -5.63219,-5.34244 -0.47742,-1.26554 -0.56874,-1.94678 -0.47592,-3.5504 0.18969,-3.27697 1.82641,-5.79263 4.77441,-7.33829 1.21991,-0.63961 1.67216,-0.72412 3.89376,-0.72758 2.94001,-0.005 4.40918,0.55488 6.22467,2.37037 1.81374,1.81373 2.37451,3.28469 2.37302,6.22467 -0.001,2.20683 -0.0867,2.67497 -0.70125,3.83646 -1.56841,2.9642 -4.26074,4.69305 -7.49956,4.81578 -1.04047,0.0394 -2.33626,-0.087 -2.95694,-0.28857 z m 4.58675,-4.56503 c 2.11506,-1.00366 2.94823,-4.20745 1.61043,-6.1926 -1.81568,-2.6943 -6.08094,-2.4878 -7.43222,0.35981 -1.78769,3.76726 2.05707,7.61927 5.82179,5.83279 z m -47.133396,-0.5575 c 1.99163,-4.76189 1.64875,-9.36948 -0.99145,-13.32322 -2.50573,-3.75236 -7.721,-6.20307 -11.963154,-5.62162 -0.662943,0.0909 -1.205349,0.10256 -1.205349,0.026 0,-0.0766 1.794909,-5.36127 3.988689,-11.74377 2.193779,-6.3825 6.052824,-17.75022 8.575654,-25.2616 2.52283,-7.51137 4.842306,-14.1575598 5.154386,-14.7693098 0.76552,-1.50053 2.70887,-3.31234 4.49401,-4.18982 l 1.46746,-0.72131997 15.74271,-0.0738 15.74271,-0.0737 1.17529,0.60291 c 0.64641,0.33159997 1.53937,1.06039997 1.98437,1.61953997 l 0.80909,1.01662 0.0714,18.3810198 0.0714,18.38102 4.04008,-0.18478 c 4.37432,-0.20007 4.93843,-0.0858 6.18929,1.2539 1.34415,1.4396 1.40169,1.92077 1.40169,11.72084 v 9.13663 H 115.153 c -6.8684,0 -8.42358,0.22085 -10.62089,1.50831 -3.79241,2.22207 -5.84459,6.75817 -4.97343,10.99325 l 0.36736,1.78594 H 82.21571 c -16.764366,0 -17.699986,-0.0247 -17.516676,-0.46303 z M 75.41582,51.004653 c 0.007,-4.38863 0.26633,-5.33695 1.88011,-6.86294 1.1891,-1.12441 1.97091,-1.38433 4.75917,-1.58225 l 2.35074,-0.16686 v -6.33869 c 0,-4.96083 -0.0719,-6.31168 -0.33073,-6.21444 -0.1819,0.0683 -2.83104,0.9206 -5.88698,1.89393 -3.05593,0.97332 -5.72913,1.82861 -5.94043,1.90064 -0.26299,0.0897 0.21694,0.69179 1.52136,1.90876 1.04804,0.97778 1.90553,1.91022 1.90553,2.07206 0,0.49928 -0.73429,0.9478 -1.16086,0.70908 -0.21715,-0.12153 -2.65689,-2.33359 -5.42164,-4.9157 -2.764756,-2.58211 -5.083756,-4.69474 -5.153346,-4.69474 -0.0973,0 -1.80716,4.92734 -2.75437,7.9375 -0.0687,0.21829 0.99063,-0.76508 2.35402,-2.18524 l 2.47891,-2.58211 1.661496,1.59068 1.66149,1.59069 -5.945376,6.36419 c -5.769305,6.17569 -6.802932,7.55943 -6.410555,8.58194 0.237011,0.61765 4.889935,2.7163 7.577735,3.41786 2.897956,0.75642 6.737876,1.32348 9.723436,1.4359 l 1.12448,0.0423 0.006,-3.9026 z m 25.12961,-9.81358 5.68854,-0.43902 0.0713,-17.99167 0.0713,-17.9916698 -0.5636,-0.46302 c -0.52204,-0.42887 -1.66747,-0.46302 -15.532,-0.46302 -14.54875,0 -14.99981,0.0152 -16.08871,0.54233 -0.61617,0.29828 -1.57649,1.04275 -2.13405,1.65438 -0.91782,1.00682 -1.32674,2.04287 -4.32105,10.9477898 l -3.307286,9.83574 1.98438,1.83565 c 1.845926,1.70758 2.008386,1.80136 2.328666,1.34422 0.53239,-0.75991 0.83788,-0.87607 10.04034,-3.81786 9.13396,-2.9199 10.28752,-3.14147 11.97265,-2.29966 1.76492,0.88168 1.85121,1.35019 1.85168,10.05376 l 4.1e-4,7.73907 1.12447,-0.024 c 0.61847,-0.0132 3.68433,-0.22155 6.81303,-0.46302 z M 85.58552,21.601593 c -3.47252,-1.57735 -4.39322,-6.34463 -1.76095,-9.11805 1.75127,-1.84519 4.69835,-2.33298 6.9558,-1.15131 1.40075,0.73322 2.73721,2.58692 2.98577,4.14133 0.70668,4.41933 -4.06811,7.99608 -8.18062,6.12803 z M 2.497982,76.082273 c -2.020313,-0.23114 -2.567995,-0.52164 -1.679556,-0.89087 0.570865,-0.23726 16.693657,-0.601 30.075443,-0.67854 l 4.564063,-0.0264 v -18.11187 -18.11187 l 1.785937,-0.0782 1.785937,-0.0782 0.06802,-17.66094 0.06802,-17.6609398 h 5.157499 5.157499 V 30.177123 c 0,25.8547 -0.02601,27.40111 -0.463021,27.54278 -3.976277,1.28899 -7.577862,4.91741 -8.57255,8.63644 -0.241234,0.90195 -0.466939,1.25102 -0.808887,1.25102 -0.436838,0 -0.474292,0.34476 -0.474292,4.36563 v 4.36562 l -17.528645,-0.0362 c -9.640755,-0.0199 -18.251717,-0.11892 -19.135471,-0.22003 z"
       id="path179" /></g><g
     inkscape:groupmode="layer"
     id="layer2"
     inkscape:label="Camada 2"><path
       style="display:inline;fill:#ffffff;stroke-width:1.34112"
       d="m 246.61213,286.74804 c -2.74576,-0.53964 -2.77149,-0.73798 -0.80269,-6.1877 1.17967,-3.2654 2.0686,-10.41823 2.11639,-17.02973 0.0727,-10.05247 -0.41114,-12.45364 -4.09408,-20.31969 -8.04082,-17.17362 -23.72081,-27.79342 -42.84911,-29.02099 -5.42996,-0.34848 -9.87266,-0.89127 -9.87266,-1.20621 0,-0.82631 57.21111,-169.241419 62.08038,-182.749028 4.72159,-13.097924 11.34521,-21.2837906 21.30608,-26.3313477 l 6.37959,-3.23278296 h 58.4716 c 40.51966,0 59.37095,0.46115876 61.40094,1.50204936 1.61114,0.8261273 4.89075,3.3585357 7.28801,5.6275745 l 4.35864,4.1255248 v 69.879529 69.879531 l 17.3152,-0.0689 c 16.52614,-0.0658 17.47353,0.0793 20.78944,3.18426 1.91084,1.78928 4.07347,5.41031 4.80585,8.04674 0.73238,2.63643 1.33498,19.67754 1.33908,37.86911 l 0.008,33.0756 -27.8283,0.47003 c -32.10902,0.54237 -34.19912,1.15329 -44.98404,13.14872 -8.18392,9.10249 -10.92555,17.48423 -9.94779,30.41252 l 0.74424,9.848 -62.59407,-0.18264 c -34.42673,-0.10045 -63.87057,-0.43352 -65.43075,-0.74014 z m 37.43883,-95.71423 c 0.65857,-13.09815 1.34395,-17.02873 3.60812,-20.69225 3.36989,-5.45259 12.31075,-10.0706 19.54616,-10.09571 2.90199,-0.0107 6.67219,-0.39214 8.37822,-0.84903 l 3.10189,-0.83074 -0.41964,-23.18287 c -0.2308,-12.75058 -0.81866,-23.58035 -1.30636,-24.06614 -0.89747,-0.89396 -43.71735,12.37765 -45.88668,14.22212 -0.64638,0.54958 1.9525,4.30637 5.7753,8.34841 4.15443,4.3927 6.37315,7.70603 5.51526,8.23624 -1.4459,0.8936 -5.06682,-2.12415 -28.77802,-23.98425 -7.41691,-6.83788 -13.43809,-11.4273 -14.07609,-10.72898 -1.68468,1.84395 -10.79505,30.05446 -9.70586,30.05446 0.52103,0 4.83257,-3.92008 9.58121,-8.71131 l 8.63389,-8.71132 5.65252,5.54753 5.65252,5.54753 -18.15317,19.53761 c -22.5561,24.27632 -26.80882,29.44837 -27.94888,33.9907 -0.84774,3.37768 -0.33251,3.88759 8.27386,8.18829 5.04784,2.52246 12.19542,5.55049 15.8835,6.72896 7.55514,2.41412 26.43191,5.96059 35.53976,6.67705 3.31927,0.2611 6.99905,0.58017 8.17727,0.70904 1.81748,0.19879 2.26547,-2.21689 2.95522,-15.93534 z m 105.66352,-36.99027 10.17676,-0.83445 0.88707,-68.410272 c 0.83222,-64.179226 0.74195,-68.52044 -1.45946,-70.191559 -1.8646,-1.415452 -14.20402,-1.790049 -60.08164,-1.823942 l -57.73511,-0.04265 -5.69553,3.688088 c -7.46413,4.833327 -9.69488,9.626348 -23.41674,50.31354 l -11.20158,33.214227 7.17583,6.786588 c 3.9467,3.73263 7.61584,6.55883 8.15365,6.28044 10.77068,-5.57526 62.46943,-22.81016 73.91048,-24.639658 6.4751,-1.03541 12.93267,1.220204 15.29742,5.343352 1.09885,1.915947 1.7706,12.561196 2.07433,32.871456 l 0.44917,30.03787 15.6443,-0.87929 c 8.60436,-0.48362 20.22383,-1.25481 25.82105,-1.71374 z"
       id="path321"
       transform="scale(0.26458333)" /><path
       style="display:inline;fill:#ffffff;stroke-width:1.34112"
       d="m 321.19888,78.733871 c -9.86143,-5.397402 -13.71834,-19.629467 -7.71145,-28.455408 5.04687,-7.415401 9.69842,-10.044783 17.76987,-10.044783 8.07145,0 12.723,2.629382 17.76988,10.044783 5.80668,8.531785 2.9949,20.12475 -6.60571,27.235326 -5.18466,3.839951 -15.36643,4.4253 -21.22259,1.220082 z"
       id="path323"
       transform="scale(0.26458333)" /><path
       style="display:inline;fill:#ffffff;stroke-width:1.34112"
       d="m 8.0467361,285.11316 c -15.060447,-1.78587 1.9942559,-2.78401 62.6974849,-3.66946 l 62.697489,-0.91455 v -68.13304 -68.13303 l 6.70561,-0.88954 6.70561,-0.88953 V 76.271215 10.05842 h 18.77572 18.77572 v 102.57329 102.5733 l -6.93002,3.5117 c -10.38893,5.26447 -20.26222,15.3021 -24.63427,25.04433 -2.05355,4.57593 -4.54252,9.12866 -5.531,10.11716 -1.29259,1.29259 -1.79727,6.10114 -1.79727,17.12438 v 15.32711 L 80.13208,286.119 C 44.173228,286.00313 11.734823,285.55049 8.0467361,285.11316 Z"
       id="path325"
       transform="scale(0.26458333)" /><path
       style="display:inline;fill:#ffffff;stroke-width:1.34112"
       d="m 187.75718,304.65102 c -12.45824,-4.12693 -21.28768,-11.59284 -27.21865,-23.01526 -4.93753,-9.50914 -5.09263,-25.18554 -0.34464,-34.83421 4.19934,-8.53373 13.22445,-17.55328 21.2649,-21.25179 9.67363,-4.44977 26.73349,-4.12684 35.88819,0.67932 14.42067,7.57078 22.51784,20.91242 22.63865,37.30153 0.0884,11.99733 -3.90804,21.99912 -12.03948,30.13055 -10.05259,10.05259 -28.11115,14.99079 -40.18897,10.98986 z m 20.69425,-21.62596 c 2.08836,-1.07994 5.37767,-3.84202 7.30957,-6.13795 2.96097,-3.51892 3.51177,-5.47453 3.50755,-12.45356 -0.003,-5.84402 -0.77502,-9.54196 -2.62294,-12.57266 -6.59599,-10.81778 -24.83531,-12.44638 -33.65482,-3.00506 -6.93944,7.42869 -7.66322,21.5107 -1.47065,28.6133 6.3295,7.25967 18.70109,9.81193 26.93129,5.55593 z"
       id="path327"
       transform="scale(0.26458333)" /><path
       style="display:inline;fill:#ffffff;stroke-width:1.34112"
       d="m 405.68093,305.19347 c -9.63908,-2.93208 -18.57413,-10.84139 -22.28761,-19.72901 -4.61348,-11.0416 -0.0933,-28.81099 9.07603,-35.67899 9.07555,-6.79776 13.06372,-8.08443 22.88125,-7.38199 11.58216,0.8287 20.08524,5.7089 25.66123,14.72785 3.32615,5.37992 3.88457,7.66057 3.93187,16.05802 0.0418,7.42009 -0.63465,11.13484 -2.79653,15.35758 -6.49547,12.68744 -23.68513,20.53438 -36.46624,16.64654 z m 18.93554,-18.60815 c 5.21849,-4.66271 6.82554,-14.7058 3.41003,-21.31065 -6.00142,-11.60548 -24.78421,-10.39453 -29.93366,1.92986 -2.76615,6.62031 -1.28345,13.19541 4.21563,18.69449 3.87657,3.87657 5.33807,4.45404 11.27261,4.45404 5.57865,0 7.58537,-0.68514 11.03539,-3.76774 z"
       id="path329"
       transform="scale(0.26458333)" /></g></svg>
